<?xml version="1.0" encoding="UTF-8"?>
<svg xmlns="http://www.w3.org/2000/svg" xmlns:xlink="http://www.w3.org/1999/xlink" width="32px" height="18px" viewBox="0 0 31 18" version="1.1">
<g id="surface1">
<rect x="0" y="0" width="31" height="18" style="fill:rgb(85.490196%,0%,0%);fill-opacity:1;stroke:none;"/>
<path style=" stroke:none;fill-rule:nonzero;fill:rgb(100%,100%,100%);fill-opacity:1;" d="M 0 0 L 31 0 L 31 12 L 0 12 Z M 0 0 "/>
<path style=" stroke:none;fill-rule:nonzero;fill:rgb(13.72549%,62.352941%,25.098039%);fill-opacity:1;" d="M 0 0 L 31 0 L 31 6 L 0 6 Z M 0 0 "/>
<path style="fill:none;stroke-width:2;stroke-linecap:butt;stroke-linejoin:miter;stroke:rgb(100%,100%,100%);stroke-opacity:1;stroke-miterlimit:4;" d="M 0.0105847 0.997768 L 25.980847 0.997768 M 0.974546 9.982143 L 0.974546 5.015625 L 9.026462 5.015625 L 9.026462 8.977679 L 17.021673 8.977679 L 17.021673 5.015625 L 11.97505 5.015625 M 3.979839 8.977679 L 6.021169 8.977679 M 25.980847 8.977679 L 20.990927 8.977679 L 20.990927 5.015625 L 28.986139 5.015625 M 28.986139 -0.00669643 L 28.986139 8.977679 L 36.981351 8.977679 L 36.981351 -0.00669643 M 33.012097 -0.00669643 L 33.012097 8.977679 " transform="matrix(0.0688889,0,0,0.07,0.413333,5.02)"/>
<path style="fill:none;stroke-width:2;stroke-linecap:butt;stroke-linejoin:miter;stroke:rgb(100%,100%,100%);stroke-opacity:1;stroke-miterlimit:4;" d="M 0.00529234 7 L 8.992818 7 M 10.013483 7 L 19.001008 7 " transform="matrix(0.137778,0,0,0.14,0.413333,5.02)"/>
<path style="fill:none;stroke-width:2;stroke-linecap:butt;stroke-linejoin:miter;stroke:rgb(100%,100%,100%);stroke-opacity:1;stroke-miterlimit:4;" d="M 0.00529234 7 L 8.992818 7 M 10.013483 7 L 19.001008 7 " transform="matrix(0.137778,0,0,0.14,0.413333,11.02)"/>
<path style="fill:none;stroke-width:2;stroke-linecap:butt;stroke-linejoin:miter;stroke:rgb(100%,100%,100%);stroke-opacity:1;stroke-miterlimit:4;" d="M 0.0105847 1.022321 L 25.980847 1.022321 M 0.974546 10.006696 L 0.974546 4.984375 L 9.026462 4.984375 L 9.026462 9.002232 L 17.021673 9.002232 L 17.021673 4.984375 L 11.97505 4.984375 M 3.979839 9.002232 L 6.021169 9.002232 M 25.980847 9.002232 L 20.990927 9.002232 L 20.990927 4.984375 L 28.986139 4.984375 M 28.986139 0.0178571 L 28.986139 9.002232 L 36.981351 9.002232 L 36.981351 0.0178571 M 33.012097 0.0178571 L 33.012097 9.002232 " transform="matrix(0.0688889,0,0,0.07,0.413333,12.28)"/>
<path style="fill:none;stroke-width:2;stroke-linecap:butt;stroke-linejoin:miter;stroke:rgb(100%,100%,100%);stroke-opacity:1;stroke-miterlimit:4;" d="M -0.0133569 0.997768 L 26.013609 0.997768 M 1.007308 9.982143 L 1.007308 5.015625 L 9.00252 5.015625 L 9.00252 8.977679 L 16.997732 8.977679 L 16.997732 5.015625 L 12.007813 5.015625 M 4.012601 8.977679 L 5.997228 8.977679 M 26.013609 8.977679 L 21.02369 8.977679 L 21.02369 5.015625 L 29.018901 5.015625 M 29.018901 -0.00669643 L 29.018901 8.977679 L 37.014113 8.977679 L 37.014113 -0.00669643 M 32.988155 -0.00669643 L 32.988155 8.977679 " transform="matrix(0.0688889,0,0,0.07,3.168889,5.02)"/>
<path style="fill:none;stroke-width:2;stroke-linecap:butt;stroke-linejoin:miter;stroke:rgb(100%,100%,100%);stroke-opacity:1;stroke-miterlimit:4;" d="M -0.00667843 7 L 9.009199 7 M 10.001512 7 L 18.989037 7 " transform="matrix(0.137778,0,0,0.14,3.168889,5.02)"/>
<path style="fill:none;stroke-width:2;stroke-linecap:butt;stroke-linejoin:miter;stroke:rgb(100%,100%,100%);stroke-opacity:1;stroke-miterlimit:4;" d="M -0.00667843 7 L 9.009199 7 M 10.001512 7 L 18.989037 7 " transform="matrix(0.137778,0,0,0.14,3.168889,11.02)"/>
<path style="fill:none;stroke-width:2;stroke-linecap:butt;stroke-linejoin:miter;stroke:rgb(100%,100%,100%);stroke-opacity:1;stroke-miterlimit:4;" d="M -0.0133569 1.022321 L 26.013609 1.022321 M 1.007308 10.006696 L 1.007308 4.984375 L 9.00252 4.984375 L 9.00252 9.002232 L 16.997732 9.002232 L 16.997732 4.984375 L 12.007813 4.984375 M 4.012601 9.002232 L 5.997228 9.002232 M 26.013609 9.002232 L 21.02369 9.002232 L 21.02369 4.984375 L 29.018901 4.984375 M 29.018901 0.0178571 L 29.018901 9.002232 L 37.014113 9.002232 L 37.014113 0.0178571 M 32.988155 0.0178571 L 32.988155 9.002232 " transform="matrix(0.0688889,0,0,0.07,3.168889,12.28)"/>
<path style="fill:none;stroke-width:2;stroke-linecap:butt;stroke-linejoin:miter;stroke:rgb(100%,100%,100%);stroke-opacity:1;stroke-miterlimit:4;" d="M 0.0194052 0.997768 L 25.989667 0.997768 M 0.983367 9.982143 L 0.983367 5.015625 L 8.978579 5.015625 L 8.978579 8.977679 L 16.97379 8.977679 L 16.97379 5.015625 L 11.983871 5.015625 M 3.988659 8.977679 L 5.973286 8.977679 M 25.989667 8.977679 L 20.999748 8.977679 L 20.999748 5.015625 L 28.99496 5.015625 M 28.99496 -0.00669643 L 28.99496 8.977679 L 36.990171 8.977679 L 36.990171 -0.00669643 M 33.020917 -0.00669643 L 33.020917 8.977679 " transform="matrix(0.0688889,0,0,0.07,5.924444,5.02)"/>
<path style="fill:none;stroke-width:2;stroke-linecap:butt;stroke-linejoin:miter;stroke:rgb(100%,100%,100%);stroke-opacity:1;stroke-miterlimit:4;" d="M 0.00970262 7 L 8.997228 7 M 9.989541 7 L 19.005418 7 " transform="matrix(0.137778,0,0,0.14,5.924444,5.02)"/>
<path style="fill:none;stroke-width:2;stroke-linecap:butt;stroke-linejoin:miter;stroke:rgb(100%,100%,100%);stroke-opacity:1;stroke-miterlimit:4;" d="M 0.00970262 7 L 8.997228 7 M 9.989541 7 L 19.005418 7 " transform="matrix(0.137778,0,0,0.14,5.924444,11.02)"/>
<path style="fill:none;stroke-width:2;stroke-linecap:butt;stroke-linejoin:miter;stroke:rgb(100%,100%,100%);stroke-opacity:1;stroke-miterlimit:4;" d="M 0.0194052 1.022321 L 25.989667 1.022321 M 0.983367 10.006696 L 0.983367 4.984375 L 8.978579 4.984375 L 8.978579 9.002232 L 16.97379 9.002232 L 16.97379 4.984375 L 11.983871 4.984375 M 3.988659 9.002232 L 5.973286 9.002232 M 25.989667 9.002232 L 20.999748 9.002232 L 20.999748 4.984375 L 28.99496 4.984375 M 28.99496 0.0178571 L 28.99496 9.002232 L 36.990171 9.002232 L 36.990171 0.0178571 M 33.020917 0.0178571 L 33.020917 9.002232 " transform="matrix(0.0688889,0,0,0.07,5.924444,12.28)"/>
<path style="fill:none;stroke-width:2;stroke-linecap:butt;stroke-linejoin:miter;stroke:rgb(100%,100%,100%);stroke-opacity:1;stroke-miterlimit:4;" d="M -0.00453629 0.997768 L 26.022429 0.997768 M 1.016129 9.982143 L 1.016129 5.015625 L 9.011341 5.015625 L 9.011341 8.977679 L 17.006552 8.977679 L 17.006552 5.015625 L 12.016633 5.015625 M 4.021421 8.977679 L 6.006048 8.977679 M 26.022429 8.977679 L 20.975806 8.977679 L 20.975806 5.015625 L 29.027722 5.015625 M 29.027722 -0.00669643 L 29.027722 8.977679 L 37.022933 8.977679 L 37.022933 -0.00669643 M 32.996976 -0.00669643 L 32.996976 8.977679 " transform="matrix(0.0688889,0,0,0.07,8.68,5.02)"/>
<path style="fill:none;stroke-width:2;stroke-linecap:butt;stroke-linejoin:miter;stroke:rgb(100%,100%,100%);stroke-opacity:1;stroke-miterlimit:4;" d="M -0.00226815 7 L 9.013609 7 M 10.005922 7 L 18.993448 7 " transform="matrix(0.137778,0,0,0.14,8.68,5.02)"/>
<path style="fill:none;stroke-width:2;stroke-linecap:butt;stroke-linejoin:miter;stroke:rgb(100%,100%,100%);stroke-opacity:1;stroke-miterlimit:4;" d="M -0.00226815 7 L 9.013609 7 M 10.005922 7 L 18.993448 7 " transform="matrix(0.137778,0,0,0.14,8.68,11.02)"/>
<path style="fill:none;stroke-width:2;stroke-linecap:butt;stroke-linejoin:miter;stroke:rgb(100%,100%,100%);stroke-opacity:1;stroke-miterlimit:4;" d="M -0.00453629 1.022321 L 26.022429 1.022321 M 1.016129 10.006696 L 1.016129 4.984375 L 9.011341 4.984375 L 9.011341 9.002232 L 17.006552 9.002232 L 17.006552 4.984375 L 12.016633 4.984375 M 4.021421 9.002232 L 6.006048 9.002232 M 26.022429 9.002232 L 20.975806 9.002232 L 20.975806 4.984375 L 29.027722 4.984375 M 29.027722 0.0178571 L 29.027722 9.002232 L 37.022933 9.002232 L 37.022933 0.0178571 M 32.996976 0.0178571 L 32.996976 9.002232 " transform="matrix(0.0688889,0,0,0.07,8.68,12.28)"/>
<path style="fill:none;stroke-width:2;stroke-linecap:butt;stroke-linejoin:miter;stroke:rgb(100%,100%,100%);stroke-opacity:1;stroke-miterlimit:4;" d="M 0.0282258 0.997768 L 25.998488 0.997768 M 0.992188 9.982143 L 0.992188 5.015625 L 8.987399 5.015625 L 8.987399 8.977679 L 16.982611 8.977679 L 16.982611 5.015625 L 11.992692 5.015625 M 3.99748 8.977679 L 5.982107 8.977679 M 25.998488 8.977679 L 21.008569 8.977679 L 21.008569 5.015625 L 29.00378 5.015625 M 29.00378 -0.00669643 L 29.00378 8.977679 L 36.998992 8.977679 L 36.998992 -0.00669643 M 32.973034 -0.00669643 L 32.973034 8.977679 " transform="matrix(0.0688889,0,0,0.07,11.435556,5.02)"/>
<path style="fill:none;stroke-width:2;stroke-linecap:butt;stroke-linejoin:miter;stroke:rgb(100%,100%,100%);stroke-opacity:1;stroke-miterlimit:4;" d="M 0.0141129 7 L 9.001638 7 M 9.993952 7 L 19.009829 7 " transform="matrix(0.137778,0,0,0.14,11.435556,5.02)"/>
<path style="fill:none;stroke-width:2;stroke-linecap:butt;stroke-linejoin:miter;stroke:rgb(100%,100%,100%);stroke-opacity:1;stroke-miterlimit:4;" d="M 0.0141129 7 L 9.001638 7 M 9.993952 7 L 19.009829 7 " transform="matrix(0.137778,0,0,0.14,11.435556,11.02)"/>
<path style="fill:none;stroke-width:2;stroke-linecap:butt;stroke-linejoin:miter;stroke:rgb(100%,100%,100%);stroke-opacity:1;stroke-miterlimit:4;" d="M 0.0282258 1.022321 L 25.998488 1.022321 M 0.992188 10.006696 L 0.992188 4.984375 L 8.987399 4.984375 L 8.987399 9.002232 L 16.982611 9.002232 L 16.982611 4.984375 L 11.992692 4.984375 M 3.99748 9.002232 L 5.982107 9.002232 M 25.998488 9.002232 L 21.008569 9.002232 L 21.008569 4.984375 L 29.00378 4.984375 M 29.00378 0.0178571 L 29.00378 9.002232 L 36.998992 9.002232 L 36.998992 0.0178571 M 32.973034 0.0178571 L 32.973034 9.002232 " transform="matrix(0.0688889,0,0,0.07,11.435556,12.28)"/>
<path style="fill:none;stroke-width:2;stroke-linecap:butt;stroke-linejoin:miter;stroke:rgb(100%,100%,100%);stroke-opacity:1;stroke-miterlimit:4;" d="M 0.00428427 0.997768 L 25.974546 0.997768 M 1.02495 9.982143 L 1.02495 5.015625 L 9.020161 5.015625 L 9.020161 8.977679 L 17.015373 8.977679 L 17.015373 5.015625 L 12.025454 5.015625 M 3.973538 8.977679 L 6.014869 8.977679 M 25.974546 8.977679 L 20.984627 8.977679 L 20.984627 5.015625 L 28.979839 5.015625 M 28.979839 -0.00669643 L 28.979839 8.977679 L 36.97505 8.977679 L 36.97505 -0.00669643 M 33.005796 -0.00669643 L 33.005796 8.977679 " transform="matrix(0.0688889,0,0,0.07,14.191111,5.02)"/>
<path style="fill:none;stroke-width:2;stroke-linecap:butt;stroke-linejoin:miter;stroke:rgb(100%,100%,100%);stroke-opacity:1;stroke-miterlimit:4;" d="M 0.00214214 7 L 8.989667 7 M 10.010333 7 L 18.997858 7 " transform="matrix(0.137778,0,0,0.14,14.191111,5.02)"/>
<path style="fill:none;stroke-width:2;stroke-linecap:butt;stroke-linejoin:miter;stroke:rgb(100%,100%,100%);stroke-opacity:1;stroke-miterlimit:4;" d="M 0.00214214 7 L 8.989667 7 M 10.010333 7 L 18.997858 7 " transform="matrix(0.137778,0,0,0.14,14.191111,11.02)"/>
<path style="fill:none;stroke-width:2;stroke-linecap:butt;stroke-linejoin:miter;stroke:rgb(100%,100%,100%);stroke-opacity:1;stroke-miterlimit:4;" d="M 0.00428427 1.022321 L 25.974546 1.022321 M 1.02495 10.006696 L 1.02495 4.984375 L 9.020161 4.984375 L 9.020161 9.002232 L 17.015373 9.002232 L 17.015373 4.984375 L 12.025454 4.984375 M 3.973538 9.002232 L 6.014869 9.002232 M 25.974546 9.002232 L 20.984627 9.002232 L 20.984627 4.984375 L 28.979839 4.984375 M 28.979839 0.0178571 L 28.979839 9.002232 L 36.97505 9.002232 L 36.97505 0.0178571 M 33.005796 0.0178571 L 33.005796 9.002232 " transform="matrix(0.0688889,0,0,0.07,14.191111,12.28)"/>
<path style="fill:none;stroke-width:2;stroke-linecap:butt;stroke-linejoin:miter;stroke:rgb(100%,100%,100%);stroke-opacity:1;stroke-miterlimit:4;" d="M -0.0196573 0.997768 L 26.007308 0.997768 M 1.001008 9.982143 L 1.001008 5.015625 L 8.99622 5.015625 L 8.99622 8.977679 L 16.991431 8.977679 L 16.991431 5.015625 L 12.001512 5.015625 M 4.0063 8.977679 L 5.990927 8.977679 M 26.007308 8.977679 L 21.017389 8.977679 L 21.017389 5.015625 L 29.012601 5.015625 M 29.012601 -0.00669643 L 29.012601 8.977679 L 37.007813 8.977679 L 37.007813 -0.00669643 M 32.981855 -0.00669643 L 32.981855 8.977679 " transform="matrix(0.0688889,0,0,0.07,16.946667,5.02)"/>
<path style="fill:none;stroke-width:2;stroke-linecap:butt;stroke-linejoin:miter;stroke:rgb(100%,100%,100%);stroke-opacity:1;stroke-miterlimit:4;" d="M -0.00982863 7 L 9.006048 7 M 9.998362 7 L 18.985887 7 " transform="matrix(0.137778,0,0,0.14,16.946667,5.02)"/>
<path style="fill:none;stroke-width:2;stroke-linecap:butt;stroke-linejoin:miter;stroke:rgb(100%,100%,100%);stroke-opacity:1;stroke-miterlimit:4;" d="M -0.00982863 7 L 9.006048 7 M 9.998362 7 L 18.985887 7 " transform="matrix(0.137778,0,0,0.14,16.946667,11.02)"/>
<path style="fill:none;stroke-width:2;stroke-linecap:butt;stroke-linejoin:miter;stroke:rgb(100%,100%,100%);stroke-opacity:1;stroke-miterlimit:4;" d="M -0.0196573 1.022321 L 26.007308 1.022321 M 1.001008 10.006696 L 1.001008 4.984375 L 8.99622 4.984375 L 8.99622 9.002232 L 16.991431 9.002232 L 16.991431 4.984375 L 12.001512 4.984375 M 4.0063 9.002232 L 5.990927 9.002232 M 26.007308 9.002232 L 21.017389 9.002232 L 21.017389 4.984375 L 29.012601 4.984375 M 29.012601 0.0178571 L 29.012601 9.002232 L 37.007813 9.002232 L 37.007813 0.0178571 M 32.981855 0.0178571 L 32.981855 9.002232 " transform="matrix(0.0688889,0,0,0.07,16.946667,12.28)"/>
<path style="fill:none;stroke-width:2;stroke-linecap:butt;stroke-linejoin:miter;stroke:rgb(100%,100%,100%);stroke-opacity:1;stroke-miterlimit:4;" d="M 0.0131048 0.997768 L 25.983367 0.997768 M 0.977067 9.982143 L 0.977067 5.015625 L 8.972278 5.015625 L 8.972278 8.977679 L 17.024194 8.977679 L 17.024194 5.015625 L 11.977571 5.015625 M 3.982359 8.977679 L 6.02369 8.977679 M 25.983367 8.977679 L 20.993448 8.977679 L 20.993448 5.015625 L 28.988659 5.015625 M 28.988659 -0.00669643 L 28.988659 8.977679 L 36.983871 8.977679 L 36.983871 -0.00669643 M 33.014617 -0.00669643 L 33.014617 8.977679 " transform="matrix(0.0688889,0,0,0.07,19.702222,5.02)"/>
<path style="fill:none;stroke-width:2;stroke-linecap:butt;stroke-linejoin:miter;stroke:rgb(100%,100%,100%);stroke-opacity:1;stroke-miterlimit:4;" d="M 0.00655242 7 L 8.994078 7 M 9.986391 7 L 19.002268 7 " transform="matrix(0.137778,0,0,0.14,19.702222,5.02)"/>
<path style="fill:none;stroke-width:2;stroke-linecap:butt;stroke-linejoin:miter;stroke:rgb(100%,100%,100%);stroke-opacity:1;stroke-miterlimit:4;" d="M 0.00655242 7 L 8.994078 7 M 9.986391 7 L 19.002268 7 " transform="matrix(0.137778,0,0,0.14,19.702222,11.02)"/>
<path style="fill:none;stroke-width:2;stroke-linecap:butt;stroke-linejoin:miter;stroke:rgb(100%,100%,100%);stroke-opacity:1;stroke-miterlimit:4;" d="M 0.0131048 1.022321 L 25.983367 1.022321 M 0.977067 10.006696 L 0.977067 4.984375 L 8.972278 4.984375 L 8.972278 9.002232 L 17.024194 9.002232 L 17.024194 4.984375 L 11.977571 4.984375 M 3.982359 9.002232 L 6.02369 9.002232 M 25.983367 9.002232 L 20.993448 9.002232 L 20.993448 4.984375 L 28.988659 4.984375 M 28.988659 0.0178571 L 28.988659 9.002232 L 36.983871 9.002232 L 36.983871 0.0178571 M 33.014617 0.0178571 L 33.014617 9.002232 " transform="matrix(0.0688889,0,0,0.07,19.702222,12.28)"/>
<path style="fill:none;stroke-width:2;stroke-linecap:butt;stroke-linejoin:miter;stroke:rgb(100%,100%,100%);stroke-opacity:1;stroke-miterlimit:4;" d="M -0.0108367 0.997768 L 26.016129 0.997768 M 1.009829 9.982143 L 1.009829 5.015625 L 9.00504 5.015625 L 9.00504 8.977679 L 17.000252 8.977679 L 17.000252 5.015625 L 12.010333 5.015625 M 4.015121 8.977679 L 5.999748 8.977679 M 26.016129 8.977679 L 21.02621 8.977679 L 21.02621 5.015625 L 29.021421 5.015625 M 29.021421 -0.00669643 L 29.021421 8.977679 L 37.016633 8.977679 L 37.016633 -0.00669643 M 32.990675 -0.00669643 L 32.990675 8.977679 " transform="matrix(0.0688889,0,0,0.07,22.457778,5.02)"/>
<path style="fill:none;stroke-width:2;stroke-linecap:butt;stroke-linejoin:miter;stroke:rgb(100%,100%,100%);stroke-opacity:1;stroke-miterlimit:4;" d="M -0.00541835 7 L 9.010459 7 M 10.002772 7 L 18.990297 7 " transform="matrix(0.137778,0,0,0.14,22.457778,5.02)"/>
<path style="fill:none;stroke-width:2;stroke-linecap:butt;stroke-linejoin:miter;stroke:rgb(100%,100%,100%);stroke-opacity:1;stroke-miterlimit:4;" d="M -0.00541835 7 L 9.010459 7 M 10.002772 7 L 18.990297 7 " transform="matrix(0.137778,0,0,0.14,22.457778,11.02)"/>
<path style="fill:none;stroke-width:2;stroke-linecap:butt;stroke-linejoin:miter;stroke:rgb(100%,100%,100%);stroke-opacity:1;stroke-miterlimit:4;" d="M -0.0108367 1.022321 L 26.016129 1.022321 M 1.009829 10.006696 L 1.009829 4.984375 L 9.00504 4.984375 L 9.00504 9.002232 L 17.000252 9.002232 L 17.000252 4.984375 L 12.010333 4.984375 M 4.015121 9.002232 L 5.999748 9.002232 M 26.016129 9.002232 L 21.02621 9.002232 L 21.02621 4.984375 L 29.021421 4.984375 M 29.021421 0.0178571 L 29.021421 9.002232 L 37.016633 9.002232 L 37.016633 0.0178571 M 32.990675 0.0178571 L 32.990675 9.002232 " transform="matrix(0.0688889,0,0,0.07,22.457778,12.28)"/>
<path style="fill:none;stroke-width:2;stroke-linecap:butt;stroke-linejoin:miter;stroke:rgb(100%,100%,100%);stroke-opacity:1;stroke-miterlimit:4;" d="M 0.0219254 0.997768 L 25.992188 0.997768 M 0.985887 9.982143 L 0.985887 5.015625 L 8.981099 5.015625 L 8.981099 8.977679 L 16.97631 8.977679 L 16.97631 5.015625 L 11.986391 5.015625 M 3.991179 8.977679 L 5.975806 8.977679 M 25.992188 8.977679 L 21.002268 8.977679 L 21.002268 5.015625 L 28.99748 5.015625 M 28.99748 -0.00669643 L 28.99748 8.977679 L 36.992692 8.977679 L 36.992692 -0.00669643 M 33.023438 -0.00669643 L 33.023438 8.977679 " transform="matrix(0.0688889,0,0,0.07,25.213333,5.02)"/>
<path style="fill:none;stroke-width:2;stroke-linecap:butt;stroke-linejoin:miter;stroke:rgb(100%,100%,100%);stroke-opacity:1;stroke-miterlimit:4;" d="M 0.0109627 7 L 8.998488 7 M 9.990801 7 L 19.006678 7 " transform="matrix(0.137778,0,0,0.14,25.213333,5.02)"/>
<path style="fill:none;stroke-width:2;stroke-linecap:butt;stroke-linejoin:miter;stroke:rgb(100%,100%,100%);stroke-opacity:1;stroke-miterlimit:4;" d="M 0.0109627 7 L 8.998488 7 M 9.990801 7 L 19.006678 7 " transform="matrix(0.137778,0,0,0.14,25.213333,11.02)"/>
<path style="fill:none;stroke-width:2;stroke-linecap:butt;stroke-linejoin:miter;stroke:rgb(100%,100%,100%);stroke-opacity:1;stroke-miterlimit:4;" d="M 0.0219254 1.022321 L 25.992188 1.022321 M 0.985887 10.006696 L 0.985887 4.984375 L 8.981099 4.984375 L 8.981099 9.002232 L 16.97631 9.002232 L 16.97631 4.984375 L 11.986391 4.984375 M 3.991179 9.002232 L 5.975806 9.002232 M 25.992188 9.002232 L 21.002268 9.002232 L 21.002268 4.984375 L 28.99748 4.984375 M 28.99748 0.0178571 L 28.99748 9.002232 L 36.992692 9.002232 L 36.992692 0.0178571 M 33.023438 0.0178571 L 33.023438 9.002232 " transform="matrix(0.0688889,0,0,0.07,25.213333,12.28)"/>
<path style="fill:none;stroke-width:2;stroke-linecap:butt;stroke-linejoin:miter;stroke:rgb(100%,100%,100%);stroke-opacity:1;stroke-miterlimit:4;" d="M -0.00201613 0.997768 L 26.02495 0.997768 M 1.018649 9.982143 L 1.018649 5.015625 L 9.013861 5.015625 L 9.013861 8.977679 L 17.009073 8.977679 L 17.009073 5.015625 L 12.019153 5.015625 M 4.023942 8.977679 L 6.008569 8.977679 M 26.02495 8.977679 L 20.978327 8.977679 L 20.978327 5.015625 L 28.973538 5.015625 M 28.973538 -0.00669643 L 28.973538 8.977679 L 37.025454 8.977679 L 37.025454 -0.00669643 M 32.999496 -0.00669643 L 32.999496 8.977679 " transform="matrix(0.0688889,0,0,0.07,27.968889,5.02)"/>
<path style="fill:none;stroke-width:2;stroke-linecap:butt;stroke-linejoin:miter;stroke:rgb(100%,100%,100%);stroke-opacity:1;stroke-miterlimit:4;" d="M -0.00100806 7 L 8.986517 7 M 10.007182 7 L 18.994708 7 " transform="matrix(0.137778,0,0,0.14,27.968889,5.02)"/>
<path style="fill:none;stroke-width:2;stroke-linecap:butt;stroke-linejoin:miter;stroke:rgb(100%,100%,100%);stroke-opacity:1;stroke-miterlimit:4;" d="M -0.00100806 7 L 8.986517 7 M 10.007182 7 L 18.994708 7 " transform="matrix(0.137778,0,0,0.14,27.968889,11.02)"/>
<path style="fill:none;stroke-width:2;stroke-linecap:butt;stroke-linejoin:miter;stroke:rgb(100%,100%,100%);stroke-opacity:1;stroke-miterlimit:4;" d="M -0.00201613 1.022321 L 26.02495 1.022321 M 1.018649 10.006696 L 1.018649 4.984375 L 9.013861 4.984375 L 9.013861 9.002232 L 17.009073 9.002232 L 17.009073 4.984375 L 12.019153 4.984375 M 4.023942 9.002232 L 6.008569 9.002232 M 26.02495 9.002232 L 20.978327 9.002232 L 20.978327 4.984375 L 28.973538 4.984375 M 28.973538 0.0178571 L 28.973538 9.002232 L 37.025454 9.002232 L 37.025454 0.0178571 M 32.999496 0.0178571 L 32.999496 9.002232 " transform="matrix(0.0688889,0,0,0.07,27.968889,12.28)"/>
<path style=" stroke:none;fill-rule:nonzero;fill:rgb(85.490196%,0%,0%);fill-opacity:1;" d="M 14.285156 10.882812 C 15.203125 11.183594 16.199219 10.789062 16.671875 9.9375 C 17.140625 9.085938 16.957031 8.011719 16.226562 7.375 C 16.695312 8.082031 16.734375 8.996094 16.324219 9.738281 C 15.910156 10.480469 15.125 10.921875 14.285156 10.882812 "/>
<path style=" stroke:none;fill-rule:nonzero;fill:rgb(85.490196%,0%,0%);fill-opacity:1;" d="M 16.871094 10.488281 C 17.464844 10.136719 17.792969 9.453125 17.699219 8.761719 C 17.601562 8.066406 17.101562 7.503906 16.433594 7.332031 C 16.902344 7.691406 17.214844 8.226562 17.296875 8.820312 C 17.378906 9.410156 17.222656 10.011719 16.871094 10.488281 "/>
<path style=" stroke:none;fill-rule:nonzero;fill:rgb(85.490196%,0%,0%);fill-opacity:1;" d="M 15.5 11.25 L 15.390625 9 L 15.5 7.230469 C 15.566406 7.324219 15.65625 7.402344 15.761719 7.453125 L 15.761719 8.773438 L 15.671875 11.007812 Z M 15.5 11.25 "/>
<path style=" stroke:none;fill-rule:nonzero;fill:rgb(85.490196%,0%,0%);fill-opacity:1;" d="M 15.457031 7.085938 L 15.5 7.128906 C 15.59375 7.265625 15.769531 7.308594 15.914062 7.226562 C 16.054688 7.148438 16.117188 6.976562 16.058594 6.824219 C 16.035156 6.949219 15.9375 7.046875 15.8125 7.066406 C 15.6875 7.089844 15.5625 7.03125 15.5 6.917969 "/>
<path style=" stroke:none;fill-rule:nonzero;fill:rgb(85.490196%,0%,0%);fill-opacity:1;" d="M 16.714844 10.882812 C 15.796875 11.183594 14.800781 10.789062 14.328125 9.9375 C 13.859375 9.085938 14.042969 8.011719 14.773438 7.375 C 14.304688 8.082031 14.265625 8.996094 14.675781 9.738281 C 15.089844 10.480469 15.875 10.921875 16.714844 10.882812 "/>
<path style=" stroke:none;fill-rule:nonzero;fill:rgb(85.490196%,0%,0%);fill-opacity:1;" d="M 14.128906 10.488281 C 13.535156 10.136719 13.207031 9.453125 13.300781 8.761719 C 13.398438 8.066406 13.898438 7.503906 14.566406 7.332031 C 14.097656 7.691406 13.785156 8.226562 13.703125 8.820312 C 13.621094 9.410156 13.777344 10.011719 14.128906 10.488281 "/>
<path style=" stroke:none;fill-rule:nonzero;fill:rgb(85.490196%,0%,0%);fill-opacity:1;" d="M 15.5 11.25 L 15.609375 9 L 15.5 7.230469 C 15.433594 7.324219 15.34375 7.402344 15.238281 7.453125 L 15.238281 8.773438 L 15.328125 11.007812 Z M 15.5 11.25 "/>
<path style=" stroke:none;fill-rule:nonzero;fill:rgb(85.490196%,0%,0%);fill-opacity:1;" d="M 15.542969 7.085938 L 15.5 7.128906 C 15.40625 7.265625 15.230469 7.308594 15.085938 7.226562 C 14.945312 7.148438 14.882812 6.976562 14.941406 6.824219 C 14.964844 6.949219 15.0625 7.046875 15.1875 7.066406 C 15.3125 7.089844 15.4375 7.03125 15.5 6.917969 "/>
</g>
</svg>
